# xmcd
#
# Track frame offsets: 
#        150
#        22011
#        53764
#        84619
#        109311
#        136541
#        157841
#        195352
#        207501
#        222420
#        251696
#        301316
#        332331
#
# Disc length: 4761 seconds
#
# Revision: 1
# Processed by: cddbd v1.5.2PL0 Copyright (c) Steve Scherf et al.
# Submitted via: ExactAudioCopy v1.3
#
DISCID=ac12970d
DTITLE=Various Artist - Free Soul The Treasure Of West End
DYEAR=2014
DGENRE=Soul
TTITLE0=Taana Gardner - Heartbeat [7" Version]
TTITLE1=Ednah Holt - Serious, Sirius Sax Party [The Unreleased Dub]
TTITLE2=D'Bora - No Sense [Club Mix]
TTITLE3=Sweet G - A Heartbeat Rap
TTITLE4=Bombers - Dance, Dance, Dance [Paul Poulos Special Disco Remix
TTITLE4=]
TTITLE5=Barbara Mason - Don't I Ever Cross Your Mind Sometime
TTITLE6=Peech Boys - Don't Make Me Wait [Extended Version]
TTITLE7=Loose Joints - Pop Your Funk [7" Version]
TTITLE8=Loose Joints - Tell You (Today) [New Shoes Edit]
TTITLE9=Carl Bean - I Was Born This Way [Tom Moulton Mix]
TTITLE10=Bettye LaVette - Doin' The Best That I Can [A Special New Mix
TTITLE10=]
TTITLE11=Raw Silk - Just In Time
TTITLE12=George and Glen Miller - Touch Your Life
EXTD=
EXTT0=
EXTT1=
EXTT2=
EXTT3=
EXTT4=
EXTT5=
EXTT6=
EXTT7=
EXTT8=
EXTT9=
EXTT10=
EXTT11=
EXTT12=
PLAYORDER=
